<svg xmlns="http://www.w3.org/2000/svg" width="151" height="212.598" viewBox="0 0 151 212.598">
  <g id="audiovisual-bg-element" transform="translate(-781.532 -107.77)" opacity="0.78">
    <path id="Trazado_72" data-name="Trazado 72" d="M1003.68,437.729l-13.538,13.412L972,432.982l13.538-13.413c5.053-5.047,9.725-9.14,15.8-8.051a11.8,11.8,0,0,1,6.548,3.734,11.622,11.622,0,0,1,3.724,6.937C1012.238,427.9,1009.041,432.369,1003.68,437.729Z" transform="translate(-94.097 -149.976)" fill="#424242"/>
    <path id="Trazado_73" data-name="Trazado 73" d="M851.418,280.571h0a9.909,9.909,0,0,0-2.815-5.094,9.633,9.633,0,0,0-6.848-3.042,10.084,10.084,0,0,0-2.181.2,8.169,8.169,0,0,0-2.618-6.557,9.291,9.291,0,0,0-5.744-2.812c-3.888-.33-6.979,1.962-8.97,3.718-.638.568-1.2,1.134-1.8,1.733l-15.654,15.642,24.833,24.853,15.657-15.645C848.358,290.488,852.584,286.266,851.418,280.571Z" transform="translate(-11.487 -76.807)" fill="#424242"/>
    <rect id="Rectángulo_22" data-name="Rectángulo 22" width="35.161" height="35.161" transform="translate(897.744 107.769) rotate(45)" fill="#424242"/>
    <g id="Grupo_34" data-name="Grupo 34" transform="translate(862.956 182.949)">
      <path id="Trazado_74" data-name="Trazado 74" d="M966.191,256.357l-23.73,23.73,23.729,23.729h16.974l-23.729-23.729,23.73-23.73Z" transform="translate(-942.461 -256.357)" fill="#fff"/>
      <path id="Trazado_75" data-name="Trazado 75" d="M1023.255,256.357l-23.73,23.73,23.729,23.729h16.974L1016.5,280.087l23.73-23.73Z" transform="translate(-970.653 -256.357)" fill="#fff"/>
    </g>
    <g id="Grupo_35" data-name="Grupo 35" transform="translate(781.532 249.18)">
      <path id="Trazado_76" data-name="Trazado 76" d="M805.262,387.257l-23.73,23.73,23.729,23.729h16.974l-23.729-23.729,23.73-23.73Z" transform="translate(-781.532 -387.257)" fill="#fff"/>
      <path id="Trazado_77" data-name="Trazado 77" d="M857.122,481.616l23.73-23.73-23.729-23.729H840.149l23.729,23.729-23.73,23.73Z" transform="translate(-810.49 -410.428)" fill="#fff"/>
    </g>
    <g id="Grupo_36" data-name="Grupo 36" transform="translate(784.495 108.902)">
      <path id="Trazado_78" data-name="Trazado 78" d="M858.021,110.008l-23.73,23.73,23.729,23.729h16.974l-23.729-23.729L875,110.008Z" transform="translate(-810.56 -110.008)" fill="#fff"/>
      <path id="Trazado_79" data-name="Trazado 79" d="M804.362,157.467l23.73-23.73-23.729-23.729H787.39l23.729,23.729-23.73,23.73Z" transform="translate(-787.389 -110.008)" fill="#fff"/>
    </g>
  </g>
</svg>
