<?xml version="1.0" encoding="UTF-8"?><svg id="Capa_1" xmlns="http://www.w3.org/2000/svg" xmlns:xlink="http://www.w3.org/1999/xlink" viewBox="0 0 386.34 119.41"><defs><style>.cls-1{fill:#262626;}.cls-2{fill:url(#Motivo_nuevo_5);}.cls-3{fill:none;}</style><pattern id="Motivo_nuevo_5" x="0" y="0" width="220" height="200" patternTransform="translate(-2220.8 8110.96) scale(1.57)" patternUnits="userSpaceOnUse" viewBox="0 0 220 200"><g><rect class="cls-3" y="0" width="220" height="200"/><polygon class="cls-1" points="215.07 197.42 206.08 197.42 198 205.5 189.92 197.42 180.93 197.42 193.5 210 180.93 222.57 189.92 222.57 198 214.5 206.08 222.57 215.07 222.57 202.5 210 215.07 197.42"/><polygon class="cls-1" points="171.07 167.42 162.08 167.42 154 175.5 145.92 167.42 136.93 167.42 149.5 180 136.93 192.57 145.92 192.57 154 184.5 162.08 192.57 171.07 192.57 158.5 180 171.07 167.42"/><polygon class="cls-1" points="127.07 187.42 118.08 187.42 110 195.5 101.92 187.42 92.93 187.42 105.5 200 92.93 212.57 101.92 212.57 110 204.5 118.08 212.57 127.07 212.57 114.5 200 127.07 187.42"/><polygon class="cls-1" points="39.07 177.42 30.08 177.42 22 185.5 13.92 177.42 4.93 177.42 17.5 190 4.93 202.57 13.92 202.57 22 194.5 30.08 202.57 39.07 202.57 26.5 190 39.07 177.42"/><polygon class="cls-1" points="215.07 147.42 206.08 147.42 198 155.5 189.92 147.42 180.93 147.42 193.5 160 180.93 172.57 189.92 172.57 198 164.5 206.08 172.57 215.07 172.57 202.5 160 215.07 147.42"/><polygon class="cls-1" points="171.07 117.42 162.08 117.42 154 125.5 145.92 117.42 136.93 117.42 149.5 130 136.93 142.57 145.92 142.57 154 134.5 162.08 142.57 171.07 142.57 158.5 130 171.07 117.42"/><polygon class="cls-1" points="127.07 137.42 118.08 137.42 110 145.5 101.92 137.42 92.93 137.42 105.5 150 92.93 162.57 101.92 162.57 110 154.5 118.08 162.57 127.07 162.57 114.5 150 127.07 137.42"/><polygon class="cls-1" points="83.07 157.42 74.08 157.42 66 165.5 57.92 157.42 48.93 157.42 61.5 170 48.93 182.57 57.92 182.57 66 174.5 74.08 182.57 83.07 182.57 70.5 170 83.07 157.42"/><polygon class="cls-1" points="39.07 127.42 30.08 127.42 22 135.5 13.92 127.42 4.93 127.42 17.5 140 4.93 152.57 13.92 152.57 22 144.5 30.08 152.57 39.07 152.57 26.5 140 39.07 127.42"/><polygon class="cls-1" points="215.07 97.42 206.08 97.42 198 105.5 189.92 97.42 180.93 97.42 193.5 110 180.93 122.57 189.92 122.57 198 114.5 206.08 122.57 215.07 122.57 202.5 110 215.07 97.42"/><polygon class="cls-1" points="171.07 67.42 162.08 67.42 154 75.5 145.92 67.42 136.93 67.42 149.5 80 136.93 92.57 145.92 92.57 154 84.5 162.08 92.57 171.07 92.57 158.5 80 171.07 67.42"/><polygon class="cls-1" points="127.07 87.42 118.08 87.42 110 95.5 101.92 87.42 92.93 87.42 105.5 100 92.93 112.57 101.92 112.57 110 104.5 118.08 112.57 127.07 112.57 114.5 100 127.07 87.42"/><polygon class="cls-1" points="83.07 107.42 74.08 107.42 66 115.5 57.92 107.42 48.93 107.42 61.5 120 48.93 132.57 57.92 132.57 66 124.5 74.08 132.57 83.07 132.57 70.5 120 83.07 107.42"/><polygon class="cls-1" points="39.07 77.42 30.08 77.42 22 85.5 13.92 77.42 4.93 77.42 17.5 90 4.93 102.57 13.92 102.57 22 94.5 30.08 102.57 39.07 102.57 26.5 90 39.07 77.42"/><polygon class="cls-1" points="215.07 47.42 206.08 47.42 198 55.5 189.92 47.42 180.93 47.42 193.5 60 180.93 72.57 189.92 72.57 198 64.5 206.08 72.57 215.07 72.57 202.5 60 215.07 47.42"/><polygon class="cls-1" points="171.07 17.42 162.08 17.42 154 25.5 145.92 17.42 136.93 17.42 149.5 30 136.93 42.57 145.92 42.57 154 34.5 162.08 42.57 171.07 42.57 158.5 30 171.07 17.42"/><polygon class="cls-1" points="127.07 37.42 118.08 37.42 110 45.5 101.92 37.42 92.93 37.42 105.5 50 92.93 62.57 101.92 62.57 110 54.5 118.08 62.57 127.07 62.57 114.5 50 127.07 37.42"/><polygon class="cls-1" points="83.07 57.42 74.08 57.42 66 65.5 57.92 57.42 48.93 57.42 61.5 70 48.93 82.57 57.92 82.57 66 74.5 74.08 82.57 83.07 82.57 70.5 70 83.07 57.42"/><polygon class="cls-1" points="39.07 27.42 30.08 27.42 22 35.5 13.92 27.42 4.93 27.42 17.5 40 4.93 52.57 13.92 52.57 22 44.5 30.08 52.57 39.07 52.57 26.5 40 39.07 27.42"/><polygon class="cls-1" points="215.07 -2.58 206.08 -2.58 198 5.5 189.92 -2.58 180.93 -2.58 193.5 10 180.93 22.57 189.92 22.57 198 14.5 206.08 22.57 215.07 22.57 202.5 10 215.07 -2.58"/><polygon class="cls-1" points="127.07 -12.58 118.08 -12.58 110 -4.5 101.92 -12.58 92.93 -12.58 105.5 0 92.93 12.57 101.92 12.57 110 4.5 118.08 12.57 127.07 12.57 114.5 0 127.07 -12.58"/><polygon class="cls-1" points="83.07 7.42 74.08 7.42 66 15.5 57.92 7.42 48.93 7.42 61.5 20 48.93 32.57 57.92 32.57 66 24.5 74.08 32.57 83.07 32.57 70.5 20 83.07 7.42"/><polygon class="cls-1" points="39.07 -22.58 30.08 -22.58 22 -14.5 13.92 -22.58 4.93 -22.58 17.5 -10 4.93 2.57 13.92 2.57 22 -5.5 30.08 2.57 39.07 2.57 26.5 -10 39.07 -22.58"/></g></pattern></defs><rect class="cls-2" width="386.34" height="119.41"/></svg>