<svg xmlns="http://www.w3.org/2000/svg" width="196.666" height="193.083" viewBox="0 0 196.666 193.083">
  <path id="Trazado_19" data-name="Trazado 19" d="M908.877,632.167v0a41.611,41.611,0,0,0-11.822-21.392c-8.35-8.352-18.3-12.77-28.758-12.774a42.365,42.365,0,0,0-9.16.861c.542-6.691-.757-17.291-10.994-27.537a39.018,39.018,0,0,0-24.124-11.809c-16.324-1.387-29.306,8.24-37.665,15.613-2.677,2.388-5.055,4.764-7.573,7.279l-65.737,65.689,104.28,104.367,65.75-65.7C896.031,673.812,913.775,656.081,908.877,632.167Z" transform="translate(-713.044 -559.377)" fill="#fff"/>
</svg>
